<mxfile host="Electron" agent="Mozilla/5.0 (Windows NT 10.0; Win64; x64) AppleWebKit/537.36 (KHTML, like Gecko) draw.io/26.0.9 Chrome/128.0.6613.186 Electron/32.2.5 Safari/537.36" version="26.0.9">
  <diagram name="Trang-1" id="SkQZvF62lxtzMA0SoISn">
    <mxGraphModel dx="2278" dy="3708" grid="1" gridSize="10" guides="1" tooltips="1" connect="1" arrows="1" fold="1" page="1" pageScale="1" pageWidth="827" pageHeight="1169" math="0" shadow="0">
      <root>
        <mxCell id="0" />
        <mxCell id="1" parent="0" />
        <mxCell id="Ih_LZ2ymer50QZrbaoZV-1" value="User" style="whiteSpace=wrap;html=1;align=center;" parent="1" vertex="1">
          <mxGeometry x="200" y="-1120" width="100" height="40" as="geometry" />
        </mxCell>
        <mxCell id="Ih_LZ2ymer50QZrbaoZV-3" value="Name" style="ellipse;whiteSpace=wrap;html=1;align=center;" parent="1" vertex="1">
          <mxGeometry x="45" y="-1200" width="100" height="40" as="geometry" />
        </mxCell>
        <mxCell id="Ih_LZ2ymer50QZrbaoZV-4" value="Email" style="ellipse;whiteSpace=wrap;html=1;align=center;" parent="1" vertex="1">
          <mxGeometry x="145" y="-1250" width="100" height="40" as="geometry" />
        </mxCell>
        <mxCell id="Ih_LZ2ymer50QZrbaoZV-5" value="&lt;u&gt;UserID&lt;/u&gt;" style="ellipse;whiteSpace=wrap;html=1;align=center;" parent="1" vertex="1">
          <mxGeometry x="60" y="-1130" width="100" height="40" as="geometry" />
        </mxCell>
        <mxCell id="Ih_LZ2ymer50QZrbaoZV-6" value="Password" style="ellipse;whiteSpace=wrap;html=1;align=center;" parent="1" vertex="1">
          <mxGeometry x="110" y="-1055" width="100" height="40" as="geometry" />
        </mxCell>
        <mxCell id="Ih_LZ2ymer50QZrbaoZV-7" value="CreatAt" style="ellipse;whiteSpace=wrap;html=1;align=center;" parent="1" vertex="1">
          <mxGeometry x="240" y="-1055" width="100" height="40" as="geometry" />
        </mxCell>
        <mxCell id="Ih_LZ2ymer50QZrbaoZV-11" value="" style="endArrow=none;html=1;rounded=0;exitX=0.5;exitY=1;exitDx=0;exitDy=0;entryX=0.5;entryY=0;entryDx=0;entryDy=0;" parent="1" source="Ih_LZ2ymer50QZrbaoZV-3" target="Ih_LZ2ymer50QZrbaoZV-1" edge="1">
          <mxGeometry relative="1" as="geometry">
            <mxPoint x="390" y="-1070" as="sourcePoint" />
            <mxPoint x="550" y="-1070" as="targetPoint" />
          </mxGeometry>
        </mxCell>
        <mxCell id="Ih_LZ2ymer50QZrbaoZV-12" value="" style="endArrow=none;html=1;rounded=0;exitX=0.5;exitY=1;exitDx=0;exitDy=0;entryX=0.5;entryY=0;entryDx=0;entryDy=0;" parent="1" source="Ih_LZ2ymer50QZrbaoZV-1" target="Ih_LZ2ymer50QZrbaoZV-7" edge="1">
          <mxGeometry relative="1" as="geometry">
            <mxPoint x="300" y="-1080" as="sourcePoint" />
            <mxPoint x="250" y="-990" as="targetPoint" />
          </mxGeometry>
        </mxCell>
        <mxCell id="Ih_LZ2ymer50QZrbaoZV-13" value="" style="endArrow=none;html=1;rounded=0;exitX=0.5;exitY=1;exitDx=0;exitDy=0;entryX=0.5;entryY=0;entryDx=0;entryDy=0;" parent="1" source="Ih_LZ2ymer50QZrbaoZV-4" target="Ih_LZ2ymer50QZrbaoZV-1" edge="1">
          <mxGeometry relative="1" as="geometry">
            <mxPoint x="325.96" y="-1169" as="sourcePoint" />
            <mxPoint x="349.96" y="-1089" as="targetPoint" />
          </mxGeometry>
        </mxCell>
        <mxCell id="Ih_LZ2ymer50QZrbaoZV-14" value="" style="endArrow=none;html=1;rounded=0;exitX=0.5;exitY=1;exitDx=0;exitDy=0;entryX=0.5;entryY=0;entryDx=0;entryDy=0;" parent="1" source="Ih_LZ2ymer50QZrbaoZV-1" target="Ih_LZ2ymer50QZrbaoZV-6" edge="1">
          <mxGeometry relative="1" as="geometry">
            <mxPoint x="210" y="-1060" as="sourcePoint" />
            <mxPoint x="160" y="-970" as="targetPoint" />
          </mxGeometry>
        </mxCell>
        <mxCell id="Ih_LZ2ymer50QZrbaoZV-15" value="" style="endArrow=none;html=1;rounded=0;exitX=0;exitY=0.25;exitDx=0;exitDy=0;entryX=1;entryY=0.5;entryDx=0;entryDy=0;" parent="1" source="Ih_LZ2ymer50QZrbaoZV-1" target="Ih_LZ2ymer50QZrbaoZV-5" edge="1">
          <mxGeometry relative="1" as="geometry">
            <mxPoint x="230" y="-1140" as="sourcePoint" />
            <mxPoint x="130" y="-1060" as="targetPoint" />
          </mxGeometry>
        </mxCell>
        <mxCell id="Ih_LZ2ymer50QZrbaoZV-16" value="Orders" style="whiteSpace=wrap;html=1;align=center;" parent="1" vertex="1">
          <mxGeometry x="490" y="-1120" width="100" height="40" as="geometry" />
        </mxCell>
        <mxCell id="Ih_LZ2ymer50QZrbaoZV-17" value="&lt;u&gt;OrderID&lt;/u&gt;" style="ellipse;whiteSpace=wrap;html=1;align=center;" parent="1" vertex="1">
          <mxGeometry x="450" y="-1210" width="100" height="40" as="geometry" />
        </mxCell>
        <mxCell id="Ih_LZ2ymer50QZrbaoZV-18" value="has" style="shape=rhombus;perimeter=rhombusPerimeter;whiteSpace=wrap;html=1;align=center;" parent="1" vertex="1">
          <mxGeometry x="340" y="-1130" width="120" height="60" as="geometry" />
        </mxCell>
        <mxCell id="Ih_LZ2ymer50QZrbaoZV-19" value="" style="endArrow=none;html=1;rounded=0;exitX=1;exitY=0.5;exitDx=0;exitDy=0;entryX=0;entryY=0.5;entryDx=0;entryDy=0;" parent="1" source="Ih_LZ2ymer50QZrbaoZV-1" target="Ih_LZ2ymer50QZrbaoZV-18" edge="1">
          <mxGeometry relative="1" as="geometry">
            <mxPoint x="390" y="-1070" as="sourcePoint" />
            <mxPoint x="550" y="-1070" as="targetPoint" />
          </mxGeometry>
        </mxCell>
        <mxCell id="Ih_LZ2ymer50QZrbaoZV-20" value="" style="endArrow=none;html=1;rounded=0;entryX=0;entryY=0.5;entryDx=0;entryDy=0;exitX=1;exitY=0.5;exitDx=0;exitDy=0;" parent="1" source="Ih_LZ2ymer50QZrbaoZV-18" target="Ih_LZ2ymer50QZrbaoZV-16" edge="1">
          <mxGeometry relative="1" as="geometry">
            <mxPoint x="460" y="-1100" as="sourcePoint" />
            <mxPoint x="500" y="-1100" as="targetPoint" />
          </mxGeometry>
        </mxCell>
        <mxCell id="Ih_LZ2ymer50QZrbaoZV-21" value="OrderDate" style="ellipse;whiteSpace=wrap;html=1;align=center;" parent="1" vertex="1">
          <mxGeometry x="410" y="-1040" width="100" height="40" as="geometry" />
        </mxCell>
        <mxCell id="Ih_LZ2ymer50QZrbaoZV-22" value="N" style="text;strokeColor=none;fillColor=none;spacingLeft=4;spacingRight=4;overflow=hidden;rotatable=0;points=[[0,0.5],[1,0.5]];portConstraint=eastwest;fontSize=12;whiteSpace=wrap;html=1;" parent="1" vertex="1">
          <mxGeometry x="460" y="-1130" width="40" height="30" as="geometry" />
        </mxCell>
        <mxCell id="Ih_LZ2ymer50QZrbaoZV-23" value="TotalAmount" style="ellipse;whiteSpace=wrap;html=1;align=center;" parent="1" vertex="1">
          <mxGeometry x="560" y="-1200" width="100" height="40" as="geometry" />
        </mxCell>
        <mxCell id="Ih_LZ2ymer50QZrbaoZV-25" value="" style="endArrow=none;html=1;rounded=0;exitX=0.5;exitY=0;exitDx=0;exitDy=0;entryX=0.5;entryY=1;entryDx=0;entryDy=0;" parent="1" source="Ih_LZ2ymer50QZrbaoZV-16" target="Ih_LZ2ymer50QZrbaoZV-17" edge="1">
          <mxGeometry relative="1" as="geometry">
            <mxPoint x="610" y="-1160" as="sourcePoint" />
            <mxPoint x="770" y="-1160" as="targetPoint" />
          </mxGeometry>
        </mxCell>
        <mxCell id="Ih_LZ2ymer50QZrbaoZV-27" value="" style="endArrow=none;html=1;rounded=0;exitX=0.5;exitY=0;exitDx=0;exitDy=0;entryX=0.5;entryY=1;entryDx=0;entryDy=0;" parent="1" source="Ih_LZ2ymer50QZrbaoZV-16" target="Ih_LZ2ymer50QZrbaoZV-23" edge="1">
          <mxGeometry relative="1" as="geometry">
            <mxPoint x="600" y="-1050" as="sourcePoint" />
            <mxPoint x="760" y="-1050" as="targetPoint" />
          </mxGeometry>
        </mxCell>
        <mxCell id="Ih_LZ2ymer50QZrbaoZV-28" value="" style="endArrow=none;html=1;rounded=0;exitX=0.394;exitY=1.005;exitDx=0;exitDy=0;exitPerimeter=0;entryX=0.403;entryY=0.027;entryDx=0;entryDy=0;entryPerimeter=0;" parent="1" source="Ih_LZ2ymer50QZrbaoZV-16" target="Ih_LZ2ymer50QZrbaoZV-21" edge="1">
          <mxGeometry relative="1" as="geometry">
            <mxPoint x="620" y="-1040" as="sourcePoint" />
            <mxPoint x="780" y="-1040" as="targetPoint" />
          </mxGeometry>
        </mxCell>
        <mxCell id="Ih_LZ2ymer50QZrbaoZV-29" value="Products" style="whiteSpace=wrap;html=1;align=center;" parent="1" vertex="1">
          <mxGeometry x="840" y="-1120" width="100" height="40" as="geometry" />
        </mxCell>
        <mxCell id="Ih_LZ2ymer50QZrbaoZV-33" value="&lt;u&gt;ProductID&lt;/u&gt;" style="ellipse;whiteSpace=wrap;html=1;align=center;" parent="1" vertex="1">
          <mxGeometry x="810" y="-1040" width="100" height="40" as="geometry" />
        </mxCell>
        <mxCell id="Ih_LZ2ymer50QZrbaoZV-34" value="ProductName" style="ellipse;whiteSpace=wrap;html=1;align=center;" parent="1" vertex="1">
          <mxGeometry x="920" y="-1030" width="100" height="40" as="geometry" />
        </mxCell>
        <mxCell id="Ih_LZ2ymer50QZrbaoZV-35" value="Price" style="ellipse;whiteSpace=wrap;html=1;align=center;" parent="1" vertex="1">
          <mxGeometry x="790" y="-1220" width="100" height="40" as="geometry" />
        </mxCell>
        <mxCell id="Ih_LZ2ymer50QZrbaoZV-36" value="Stock" style="ellipse;whiteSpace=wrap;html=1;align=center;" parent="1" vertex="1">
          <mxGeometry x="910" y="-1220" width="100" height="40" as="geometry" />
        </mxCell>
        <mxCell id="Ih_LZ2ymer50QZrbaoZV-37" value="Catergory" style="whiteSpace=wrap;html=1;align=center;" parent="1" vertex="1">
          <mxGeometry x="1070" y="-1120" width="100" height="40" as="geometry" />
        </mxCell>
        <mxCell id="Ih_LZ2ymer50QZrbaoZV-38" value="&lt;u&gt;CategoryID&lt;/u&gt;" style="ellipse;whiteSpace=wrap;html=1;align=center;" parent="1" vertex="1">
          <mxGeometry x="1080" y="-1210" width="100" height="40" as="geometry" />
        </mxCell>
        <mxCell id="Ih_LZ2ymer50QZrbaoZV-39" value="CategoryName" style="ellipse;whiteSpace=wrap;html=1;align=center;" parent="1" vertex="1">
          <mxGeometry x="1070" y="-1040" width="100" height="40" as="geometry" />
        </mxCell>
        <mxCell id="Ih_LZ2ymer50QZrbaoZV-40" value="" style="endArrow=none;html=1;rounded=0;entryX=0.5;entryY=1;entryDx=0;entryDy=0;" parent="1" source="Ih_LZ2ymer50QZrbaoZV-39" target="Ih_LZ2ymer50QZrbaoZV-37" edge="1">
          <mxGeometry relative="1" as="geometry">
            <mxPoint x="890" y="-1030" as="sourcePoint" />
            <mxPoint x="1050" y="-1030" as="targetPoint" />
          </mxGeometry>
        </mxCell>
        <mxCell id="Ih_LZ2ymer50QZrbaoZV-41" value="" style="endArrow=none;html=1;rounded=0;exitX=0.5;exitY=0;exitDx=0;exitDy=0;entryX=0.418;entryY=0.993;entryDx=0;entryDy=0;entryPerimeter=0;" parent="1" source="Ih_LZ2ymer50QZrbaoZV-37" target="Ih_LZ2ymer50QZrbaoZV-38" edge="1">
          <mxGeometry relative="1" as="geometry">
            <mxPoint x="1200" y="-1120" as="sourcePoint" />
            <mxPoint x="1360" y="-1120" as="targetPoint" />
          </mxGeometry>
        </mxCell>
        <mxCell id="Ih_LZ2ymer50QZrbaoZV-42" value="has" style="shape=rhombus;perimeter=rhombusPerimeter;whiteSpace=wrap;html=1;align=center;" parent="1" vertex="1">
          <mxGeometry x="970" y="-1120" width="70" height="40" as="geometry" />
        </mxCell>
        <mxCell id="Ih_LZ2ymer50QZrbaoZV-43" value="" style="endArrow=none;html=1;rounded=0;exitX=1;exitY=0.5;exitDx=0;exitDy=0;entryX=0;entryY=0.5;entryDx=0;entryDy=0;" parent="1" source="Ih_LZ2ymer50QZrbaoZV-29" target="Ih_LZ2ymer50QZrbaoZV-42" edge="1">
          <mxGeometry relative="1" as="geometry">
            <mxPoint x="930" y="-1060" as="sourcePoint" />
            <mxPoint x="1090" y="-1060" as="targetPoint" />
          </mxGeometry>
        </mxCell>
        <mxCell id="Ih_LZ2ymer50QZrbaoZV-44" value="" style="endArrow=none;html=1;rounded=0;exitX=1;exitY=0.5;exitDx=0;exitDy=0;entryX=0;entryY=0.5;entryDx=0;entryDy=0;" parent="1" source="Ih_LZ2ymer50QZrbaoZV-42" target="Ih_LZ2ymer50QZrbaoZV-37" edge="1">
          <mxGeometry relative="1" as="geometry">
            <mxPoint x="1120" y="-1050" as="sourcePoint" />
            <mxPoint x="1280" y="-1050" as="targetPoint" />
          </mxGeometry>
        </mxCell>
        <mxCell id="Ih_LZ2ymer50QZrbaoZV-45" value="N" style="text;strokeColor=none;fillColor=none;spacingLeft=4;spacingRight=4;overflow=hidden;rotatable=0;points=[[0,0.5],[1,0.5]];portConstraint=eastwest;fontSize=12;whiteSpace=wrap;html=1;" parent="1" vertex="1">
          <mxGeometry x="940" y="-1130" width="40" height="30" as="geometry" />
        </mxCell>
        <mxCell id="Ih_LZ2ymer50QZrbaoZV-48" value="" style="endArrow=none;html=1;rounded=0;exitX=0;exitY=0.5;exitDx=0;exitDy=0;entryX=0.5;entryY=1;entryDx=0;entryDy=0;" parent="1" source="CchUM51S7KAnoL3VL-fl-1" target="CchUM51S7KAnoL3VL-fl-2" edge="1">
          <mxGeometry relative="1" as="geometry">
            <mxPoint x="630" y="-990" as="sourcePoint" />
            <mxPoint x="565" y="-1010" as="targetPoint" />
            <Array as="points">
              <mxPoint x="565" y="-970" />
            </Array>
          </mxGeometry>
        </mxCell>
        <mxCell id="Ih_LZ2ymer50QZrbaoZV-69" value="" style="endArrow=none;html=1;rounded=0;entryX=0.5;entryY=1;entryDx=0;entryDy=0;exitX=0.5;exitY=0;exitDx=0;exitDy=0;" parent="1" source="Ih_LZ2ymer50QZrbaoZV-33" target="Ih_LZ2ymer50QZrbaoZV-29" edge="1">
          <mxGeometry relative="1" as="geometry">
            <mxPoint x="840" y="-1000" as="sourcePoint" />
            <mxPoint x="990" y="-1000" as="targetPoint" />
          </mxGeometry>
        </mxCell>
        <mxCell id="Ih_LZ2ymer50QZrbaoZV-70" value="" style="endArrow=none;html=1;rounded=0;entryX=0.5;entryY=1;entryDx=0;entryDy=0;exitX=0.405;exitY=0.073;exitDx=0;exitDy=0;exitPerimeter=0;" parent="1" source="Ih_LZ2ymer50QZrbaoZV-34" target="Ih_LZ2ymer50QZrbaoZV-29" edge="1">
          <mxGeometry relative="1" as="geometry">
            <mxPoint x="900" y="-1000" as="sourcePoint" />
            <mxPoint x="920" y="-1080" as="targetPoint" />
          </mxGeometry>
        </mxCell>
        <mxCell id="Ih_LZ2ymer50QZrbaoZV-71" value="" style="endArrow=none;html=1;rounded=0;exitX=0.604;exitY=0.082;exitDx=0;exitDy=0;entryX=0.5;entryY=1;entryDx=0;entryDy=0;exitPerimeter=0;" parent="1" source="Ih_LZ2ymer50QZrbaoZV-29" target="Ih_LZ2ymer50QZrbaoZV-35" edge="1">
          <mxGeometry relative="1" as="geometry">
            <mxPoint x="830" y="-1000" as="sourcePoint" />
            <mxPoint x="990" y="-1000" as="targetPoint" />
          </mxGeometry>
        </mxCell>
        <mxCell id="Ih_LZ2ymer50QZrbaoZV-73" value="" style="endArrow=none;html=1;rounded=0;exitX=0.59;exitY=0.059;exitDx=0;exitDy=0;exitPerimeter=0;entryX=0.23;entryY=0.918;entryDx=0;entryDy=0;entryPerimeter=0;" parent="1" source="Ih_LZ2ymer50QZrbaoZV-29" target="Ih_LZ2ymer50QZrbaoZV-36" edge="1">
          <mxGeometry relative="1" as="geometry">
            <mxPoint x="890" y="-1160" as="sourcePoint" />
            <mxPoint x="1050" y="-1160" as="targetPoint" />
          </mxGeometry>
        </mxCell>
        <mxCell id="Ih_LZ2ymer50QZrbaoZV-80" value="" style="endArrow=none;html=1;rounded=0;exitX=0.5;exitY=0;exitDx=0;exitDy=0;entryX=0.5;entryY=1;entryDx=0;entryDy=0;" parent="1" source="CchUM51S7KAnoL3VL-fl-15" target="CchUM51S7KAnoL3VL-fl-1" edge="1">
          <mxGeometry relative="1" as="geometry">
            <mxPoint x="570" y="-910" as="sourcePoint" />
            <mxPoint x="700" y="-960" as="targetPoint" />
          </mxGeometry>
        </mxCell>
        <mxCell id="Ih_LZ2ymer50QZrbaoZV-81" value="Quatity" style="ellipse;whiteSpace=wrap;html=1;align=center;" parent="1" vertex="1">
          <mxGeometry x="650" y="-900" width="100" height="40" as="geometry" />
        </mxCell>
        <mxCell id="Ih_LZ2ymer50QZrbaoZV-82" value="Price" style="ellipse;whiteSpace=wrap;html=1;align=center;" parent="1" vertex="1">
          <mxGeometry x="780" y="-900" width="100" height="40" as="geometry" />
        </mxCell>
        <mxCell id="Ih_LZ2ymer50QZrbaoZV-83" value="" style="endArrow=none;html=1;rounded=0;entryX=0.5;entryY=0;entryDx=0;entryDy=0;exitX=0.5;exitY=1;exitDx=0;exitDy=0;" parent="1" source="CchUM51S7KAnoL3VL-fl-1" target="Ih_LZ2ymer50QZrbaoZV-81" edge="1">
          <mxGeometry relative="1" as="geometry">
            <mxPoint x="700" y="-970" as="sourcePoint" />
            <mxPoint x="810" y="-920" as="targetPoint" />
          </mxGeometry>
        </mxCell>
        <mxCell id="Ih_LZ2ymer50QZrbaoZV-84" value="" style="endArrow=none;html=1;rounded=0;exitX=0.5;exitY=1;exitDx=0;exitDy=0;entryX=0.425;entryY=-0.007;entryDx=0;entryDy=0;entryPerimeter=0;" parent="1" source="CchUM51S7KAnoL3VL-fl-1" target="Ih_LZ2ymer50QZrbaoZV-82" edge="1">
          <mxGeometry relative="1" as="geometry">
            <mxPoint x="700" y="-960" as="sourcePoint" />
            <mxPoint x="1090" y="-850" as="targetPoint" />
          </mxGeometry>
        </mxCell>
        <mxCell id="CchUM51S7KAnoL3VL-fl-1" value="OrderDetail" style="shape=ext;margin=3;double=1;whiteSpace=wrap;html=1;align=center;" parent="1" vertex="1">
          <mxGeometry x="650" y="-990" width="100" height="40" as="geometry" />
        </mxCell>
        <mxCell id="CchUM51S7KAnoL3VL-fl-2" value="has" style="shape=rhombus;perimeter=rhombusPerimeter;whiteSpace=wrap;html=1;align=center;" parent="1" vertex="1">
          <mxGeometry x="520" y="-1030" width="90" height="40" as="geometry" />
        </mxCell>
        <mxCell id="CchUM51S7KAnoL3VL-fl-3" value="" style="endArrow=none;html=1;rounded=0;exitX=0.75;exitY=1;exitDx=0;exitDy=0;entryX=0.5;entryY=0;entryDx=0;entryDy=0;" parent="1" source="Ih_LZ2ymer50QZrbaoZV-16" target="CchUM51S7KAnoL3VL-fl-2" edge="1">
          <mxGeometry relative="1" as="geometry">
            <mxPoint x="580" y="-1000" as="sourcePoint" />
            <mxPoint x="740" y="-1000" as="targetPoint" />
          </mxGeometry>
        </mxCell>
        <mxCell id="CchUM51S7KAnoL3VL-fl-4" value="has" style="shape=rhombus;perimeter=rhombusPerimeter;whiteSpace=wrap;html=1;align=center;" parent="1" vertex="1">
          <mxGeometry x="670" y="-1120" width="90" height="40" as="geometry" />
        </mxCell>
        <mxCell id="CchUM51S7KAnoL3VL-fl-5" value="" style="endArrow=none;html=1;rounded=0;exitX=1;exitY=0.5;exitDx=0;exitDy=0;entryX=0;entryY=0.5;entryDx=0;entryDy=0;" parent="1" source="CchUM51S7KAnoL3VL-fl-4" target="Ih_LZ2ymer50QZrbaoZV-29" edge="1">
          <mxGeometry relative="1" as="geometry">
            <mxPoint x="720" y="-1050" as="sourcePoint" />
            <mxPoint x="880" y="-1050" as="targetPoint" />
          </mxGeometry>
        </mxCell>
        <mxCell id="CchUM51S7KAnoL3VL-fl-6" value="" style="endArrow=none;html=1;rounded=0;exitX=0.5;exitY=1;exitDx=0;exitDy=0;entryX=0.652;entryY=-0.047;entryDx=0;entryDy=0;entryPerimeter=0;" parent="1" source="CchUM51S7KAnoL3VL-fl-4" target="CchUM51S7KAnoL3VL-fl-1" edge="1">
          <mxGeometry relative="1" as="geometry">
            <mxPoint x="720" y="-1040" as="sourcePoint" />
            <mxPoint x="880" y="-1040" as="targetPoint" />
          </mxGeometry>
        </mxCell>
        <mxCell id="CchUM51S7KAnoL3VL-fl-7" value="N" style="text;strokeColor=none;fillColor=none;spacingLeft=4;spacingRight=4;overflow=hidden;rotatable=0;points=[[0,0.5],[1,0.5]];portConstraint=eastwest;fontSize=12;whiteSpace=wrap;html=1;" parent="1" vertex="1">
          <mxGeometry x="620" y="-1000" width="40" height="30" as="geometry" />
        </mxCell>
        <mxCell id="CchUM51S7KAnoL3VL-fl-8" value="N" style="text;strokeColor=none;fillColor=none;spacingLeft=4;spacingRight=4;overflow=hidden;rotatable=0;points=[[0,0.5],[1,0.5]];portConstraint=eastwest;fontSize=12;whiteSpace=wrap;html=1;" parent="1" vertex="1">
          <mxGeometry x="720" y="-1015" width="40" height="30" as="geometry" />
        </mxCell>
        <mxCell id="CchUM51S7KAnoL3VL-fl-11" value="1" style="text;strokeColor=none;fillColor=none;spacingLeft=4;spacingRight=4;overflow=hidden;rotatable=0;points=[[0,0.5],[1,0.5]];portConstraint=eastwest;fontSize=12;whiteSpace=wrap;html=1;" parent="1" vertex="1">
          <mxGeometry x="300" y="-1130" width="40" height="30" as="geometry" />
        </mxCell>
        <mxCell id="CchUM51S7KAnoL3VL-fl-12" value="1" style="text;strokeColor=none;fillColor=none;spacingLeft=4;spacingRight=4;overflow=hidden;rotatable=0;points=[[0,0.5],[1,0.5]];portConstraint=eastwest;fontSize=12;whiteSpace=wrap;html=1;" parent="1" vertex="1">
          <mxGeometry x="570" y="-1080" width="20" height="20" as="geometry" />
        </mxCell>
        <mxCell id="CchUM51S7KAnoL3VL-fl-13" value="1" style="text;strokeColor=none;fillColor=none;spacingLeft=4;spacingRight=4;overflow=hidden;rotatable=0;points=[[0,0.5],[1,0.5]];portConstraint=eastwest;fontSize=12;whiteSpace=wrap;html=1;" parent="1" vertex="1">
          <mxGeometry x="810" y="-1125" width="20" height="20" as="geometry" />
        </mxCell>
        <mxCell id="CchUM51S7KAnoL3VL-fl-14" value="N" style="text;strokeColor=none;fillColor=none;spacingLeft=4;spacingRight=4;overflow=hidden;rotatable=0;points=[[0,0.5],[1,0.5]];portConstraint=eastwest;fontSize=12;whiteSpace=wrap;html=1;" parent="1" vertex="1">
          <mxGeometry x="1050" y="-1125" width="20" height="20" as="geometry" />
        </mxCell>
        <mxCell id="CchUM51S7KAnoL3VL-fl-15" value="&lt;span style=&quot;border-bottom: 1px dotted&quot;&gt;OrderDetail_ID&lt;/span&gt;" style="ellipse;whiteSpace=wrap;html=1;align=center;" parent="1" vertex="1">
          <mxGeometry x="520" y="-910" width="100" height="40" as="geometry" />
        </mxCell>
        <mxCell id="CchUM51S7KAnoL3VL-fl-22" value="" style="group" parent="1" vertex="1" connectable="0">
          <mxGeometry x="290" y="-760" width="500" height="40" as="geometry" />
        </mxCell>
        <mxCell id="CchUM51S7KAnoL3VL-fl-17" value="&lt;u&gt;UserID&lt;/u&gt;" style="whiteSpace=wrap;html=1;align=center;gradientColor=none;" parent="CchUM51S7KAnoL3VL-fl-22" vertex="1">
          <mxGeometry width="100" height="40" as="geometry" />
        </mxCell>
        <mxCell id="CchUM51S7KAnoL3VL-fl-18" value="Name" style="whiteSpace=wrap;html=1;align=center;gradientColor=none;" parent="CchUM51S7KAnoL3VL-fl-22" vertex="1">
          <mxGeometry x="100" width="100" height="40" as="geometry" />
        </mxCell>
        <mxCell id="CchUM51S7KAnoL3VL-fl-19" value="Email" style="whiteSpace=wrap;html=1;align=center;gradientColor=none;" parent="CchUM51S7KAnoL3VL-fl-22" vertex="1">
          <mxGeometry x="200" width="100" height="40" as="geometry" />
        </mxCell>
        <mxCell id="CchUM51S7KAnoL3VL-fl-20" value="Password" style="whiteSpace=wrap;html=1;align=center;gradientColor=none;" parent="CchUM51S7KAnoL3VL-fl-22" vertex="1">
          <mxGeometry x="300" width="100" height="40" as="geometry" />
        </mxCell>
        <mxCell id="CchUM51S7KAnoL3VL-fl-21" value="CrateAt" style="whiteSpace=wrap;html=1;align=center;gradientColor=none;" parent="CchUM51S7KAnoL3VL-fl-22" vertex="1">
          <mxGeometry x="400" width="100" height="40" as="geometry" />
        </mxCell>
        <mxCell id="CchUM51S7KAnoL3VL-fl-23" value="" style="group" parent="1" vertex="1" connectable="0">
          <mxGeometry x="300" y="-585" width="500" height="40" as="geometry" />
        </mxCell>
        <mxCell id="CchUM51S7KAnoL3VL-fl-24" value="&lt;u&gt;OrderID&lt;/u&gt;" style="whiteSpace=wrap;html=1;align=center;gradientColor=none;" parent="CchUM51S7KAnoL3VL-fl-23" vertex="1">
          <mxGeometry width="100" height="40" as="geometry" />
        </mxCell>
        <mxCell id="CchUM51S7KAnoL3VL-fl-25" value="UserID" style="whiteSpace=wrap;html=1;align=center;gradientColor=none;" parent="CchUM51S7KAnoL3VL-fl-23" vertex="1">
          <mxGeometry x="100" width="100" height="40" as="geometry" />
        </mxCell>
        <mxCell id="CchUM51S7KAnoL3VL-fl-26" value="TotalAmount" style="whiteSpace=wrap;html=1;align=center;gradientColor=none;" parent="CchUM51S7KAnoL3VL-fl-23" vertex="1">
          <mxGeometry x="200" width="100" height="40" as="geometry" />
        </mxCell>
        <mxCell id="CchUM51S7KAnoL3VL-fl-27" value="OrderDate" style="whiteSpace=wrap;html=1;align=center;gradientColor=none;" parent="CchUM51S7KAnoL3VL-fl-23" vertex="1">
          <mxGeometry x="300" width="100" height="40" as="geometry" />
        </mxCell>
        <mxCell id="3BFnkLosoi_cpYp4ozxy-17" value="" style="endArrow=none;dashed=1;html=1;rounded=0;" edge="1" parent="CchUM51S7KAnoL3VL-fl-23">
          <mxGeometry width="50" height="50" relative="1" as="geometry">
            <mxPoint x="125" y="25" as="sourcePoint" />
            <mxPoint x="175" y="25" as="targetPoint" />
          </mxGeometry>
        </mxCell>
        <mxCell id="CchUM51S7KAnoL3VL-fl-29" value="" style="group" parent="1" vertex="1" connectable="0">
          <mxGeometry x="300" y="-505" width="500" height="40" as="geometry" />
        </mxCell>
        <mxCell id="CchUM51S7KAnoL3VL-fl-30" value="OrderDetail_ID" style="whiteSpace=wrap;html=1;align=center;gradientColor=none;" parent="CchUM51S7KAnoL3VL-fl-29" vertex="1">
          <mxGeometry width="100" height="40" as="geometry" />
        </mxCell>
        <mxCell id="CchUM51S7KAnoL3VL-fl-31" value="OrderID" style="whiteSpace=wrap;html=1;align=center;gradientColor=none;" parent="CchUM51S7KAnoL3VL-fl-29" vertex="1">
          <mxGeometry x="100" width="100" height="40" as="geometry" />
        </mxCell>
        <mxCell id="CchUM51S7KAnoL3VL-fl-32" value="ProductID" style="whiteSpace=wrap;html=1;align=center;gradientColor=none;" parent="CchUM51S7KAnoL3VL-fl-29" vertex="1">
          <mxGeometry x="200" width="100" height="40" as="geometry" />
        </mxCell>
        <mxCell id="CchUM51S7KAnoL3VL-fl-33" value="Quantity" style="whiteSpace=wrap;html=1;align=center;gradientColor=none;" parent="CchUM51S7KAnoL3VL-fl-29" vertex="1">
          <mxGeometry x="300" width="100" height="40" as="geometry" />
        </mxCell>
        <mxCell id="CchUM51S7KAnoL3VL-fl-34" value="Price" style="whiteSpace=wrap;html=1;align=center;gradientColor=none;" parent="CchUM51S7KAnoL3VL-fl-29" vertex="1">
          <mxGeometry x="400" width="100" height="40" as="geometry" />
        </mxCell>
        <mxCell id="3BFnkLosoi_cpYp4ozxy-18" value="" style="endArrow=none;dashed=1;html=1;rounded=0;" edge="1" parent="CchUM51S7KAnoL3VL-fl-29">
          <mxGeometry width="50" height="50" relative="1" as="geometry">
            <mxPoint x="125" y="25" as="sourcePoint" />
            <mxPoint x="175" y="25" as="targetPoint" />
          </mxGeometry>
        </mxCell>
        <mxCell id="3BFnkLosoi_cpYp4ozxy-19" value="" style="endArrow=none;dashed=1;html=1;rounded=0;" edge="1" parent="CchUM51S7KAnoL3VL-fl-29">
          <mxGeometry width="50" height="50" relative="1" as="geometry">
            <mxPoint x="225" y="25" as="sourcePoint" />
            <mxPoint x="275" y="25" as="targetPoint" />
          </mxGeometry>
        </mxCell>
        <mxCell id="CchUM51S7KAnoL3VL-fl-37" value="" style="group" parent="1" vertex="1" connectable="0">
          <mxGeometry x="300" y="-425" width="500" height="40" as="geometry" />
        </mxCell>
        <mxCell id="CchUM51S7KAnoL3VL-fl-38" value="&lt;u&gt;ProductID&lt;/u&gt;" style="whiteSpace=wrap;html=1;align=center;gradientColor=none;" parent="CchUM51S7KAnoL3VL-fl-37" vertex="1">
          <mxGeometry width="100" height="40" as="geometry" />
        </mxCell>
        <mxCell id="CchUM51S7KAnoL3VL-fl-39" value="ProductName" style="whiteSpace=wrap;html=1;align=center;gradientColor=none;" parent="CchUM51S7KAnoL3VL-fl-37" vertex="1">
          <mxGeometry x="100" width="100" height="40" as="geometry" />
        </mxCell>
        <mxCell id="CchUM51S7KAnoL3VL-fl-40" value="Stock" style="whiteSpace=wrap;html=1;align=center;gradientColor=none;" parent="CchUM51S7KAnoL3VL-fl-37" vertex="1">
          <mxGeometry x="200" width="100" height="40" as="geometry" />
        </mxCell>
        <mxCell id="3BFnkLosoi_cpYp4ozxy-24" value="Price" style="whiteSpace=wrap;html=1;align=center;gradientColor=none;" vertex="1" parent="CchUM51S7KAnoL3VL-fl-37">
          <mxGeometry x="300" width="100" height="40" as="geometry" />
        </mxCell>
        <mxCell id="CchUM51S7KAnoL3VL-fl-49" value="&lt;font style=&quot;font-size: 17px;&quot;&gt;User&lt;/font&gt;" style="text;strokeColor=none;fillColor=none;spacingLeft=4;spacingRight=4;overflow=hidden;rotatable=0;points=[[0,0.5],[1,0.5]];portConstraint=eastwest;fontSize=12;whiteSpace=wrap;html=1;" parent="1" vertex="1">
          <mxGeometry x="195" y="-750" width="50" height="30" as="geometry" />
        </mxCell>
        <mxCell id="CchUM51S7KAnoL3VL-fl-50" value="&lt;span style=&quot;font-size: 17px;&quot;&gt;Orders&lt;/span&gt;" style="text;strokeColor=none;fillColor=none;spacingLeft=4;spacingRight=4;overflow=hidden;rotatable=0;points=[[0,0.5],[1,0.5]];portConstraint=eastwest;fontSize=12;whiteSpace=wrap;html=1;" parent="1" vertex="1">
          <mxGeometry x="195" y="-580" width="70" height="30" as="geometry" />
        </mxCell>
        <mxCell id="CchUM51S7KAnoL3VL-fl-51" value="&lt;span style=&quot;font-size: 17px;&quot;&gt;OrderDetail&lt;/span&gt;" style="text;strokeColor=none;fillColor=none;spacingLeft=4;spacingRight=4;overflow=hidden;rotatable=0;points=[[0,0.5],[1,0.5]];portConstraint=eastwest;fontSize=12;whiteSpace=wrap;html=1;" parent="1" vertex="1">
          <mxGeometry x="190" y="-499" width="100" height="30" as="geometry" />
        </mxCell>
        <mxCell id="CchUM51S7KAnoL3VL-fl-52" value="&lt;font style=&quot;font-size: 17px;&quot;&gt;Products&lt;/font&gt;" style="text;strokeColor=none;fillColor=none;spacingLeft=4;spacingRight=4;overflow=hidden;rotatable=0;points=[[0,0.5],[1,0.5]];portConstraint=eastwest;fontSize=12;whiteSpace=wrap;html=1;" parent="1" vertex="1">
          <mxGeometry x="195" y="-420" width="80" height="30" as="geometry" />
        </mxCell>
        <mxCell id="CchUM51S7KAnoL3VL-fl-55" value="" style="endArrow=classic;html=1;rounded=0;entryX=0.555;entryY=1.077;entryDx=0;entryDy=0;entryPerimeter=0;" parent="1" edge="1" target="CchUM51S7KAnoL3VL-fl-17" source="CchUM51S7KAnoL3VL-fl-25">
          <mxGeometry width="50" height="50" relative="1" as="geometry">
            <mxPoint x="445" y="-550" as="sourcePoint" />
            <mxPoint x="345" y="-640" as="targetPoint" />
            <Array as="points">
              <mxPoint x="450" y="-520" />
              <mxPoint x="145" y="-520" />
              <mxPoint x="145" y="-690" />
              <mxPoint x="346" y="-690" />
            </Array>
          </mxGeometry>
        </mxCell>
        <mxCell id="CchUM51S7KAnoL3VL-fl-56" value="" style="endArrow=classic;html=1;rounded=0;entryX=0.5;entryY=1;entryDx=0;entryDy=0;exitX=0.5;exitY=1;exitDx=0;exitDy=0;" parent="1" source="CchUM51S7KAnoL3VL-fl-31" target="CchUM51S7KAnoL3VL-fl-24" edge="1">
          <mxGeometry width="50" height="50" relative="1" as="geometry">
            <mxPoint x="450" y="-445" as="sourcePoint" />
            <mxPoint x="230" y="-535" as="targetPoint" />
            <Array as="points">
              <mxPoint x="450" y="-445" />
              <mxPoint x="180" y="-445" />
              <mxPoint x="180" y="-525" />
              <mxPoint x="350" y="-525" />
            </Array>
          </mxGeometry>
        </mxCell>
        <mxCell id="CchUM51S7KAnoL3VL-fl-57" value="" style="endArrow=classic;html=1;rounded=0;entryX=0.5;entryY=1;entryDx=0;entryDy=0;exitX=0.5;exitY=1;exitDx=0;exitDy=0;" parent="1" source="CchUM51S7KAnoL3VL-fl-32" target="CchUM51S7KAnoL3VL-fl-38" edge="1">
          <mxGeometry width="50" height="50" relative="1" as="geometry">
            <mxPoint x="130" y="-385" as="sourcePoint" />
            <mxPoint x="320" y="-375" as="targetPoint" />
            <Array as="points">
              <mxPoint x="550" y="-435" />
              <mxPoint x="130" y="-435" />
              <mxPoint x="130" y="-365" />
              <mxPoint x="350" y="-365" />
            </Array>
          </mxGeometry>
        </mxCell>
        <mxCell id="3BFnkLosoi_cpYp4ozxy-1" value="Address" style="ellipse;shape=doubleEllipse;margin=3;whiteSpace=wrap;html=1;align=center;" vertex="1" parent="1">
          <mxGeometry x="280" y="-1240" width="100" height="40" as="geometry" />
        </mxCell>
        <mxCell id="3BFnkLosoi_cpYp4ozxy-2" value="" style="endArrow=none;html=1;rounded=0;exitX=0.5;exitY=0;exitDx=0;exitDy=0;entryX=0.446;entryY=1.004;entryDx=0;entryDy=0;entryPerimeter=0;" edge="1" parent="1" source="Ih_LZ2ymer50QZrbaoZV-1" target="3BFnkLosoi_cpYp4ozxy-1">
          <mxGeometry relative="1" as="geometry">
            <mxPoint x="230" y="-1100" as="sourcePoint" />
            <mxPoint x="390" y="-1100" as="targetPoint" />
          </mxGeometry>
        </mxCell>
        <mxCell id="3BFnkLosoi_cpYp4ozxy-3" value="&lt;font style=&quot;font-size: 17px;&quot;&gt;User_Address&lt;/font&gt;" style="text;strokeColor=none;fillColor=none;spacingLeft=4;spacingRight=4;overflow=hidden;rotatable=0;points=[[0,0.5],[1,0.5]];portConstraint=eastwest;fontSize=12;whiteSpace=wrap;html=1;" vertex="1" parent="1">
          <mxGeometry x="160" y="-680" width="120" height="30" as="geometry" />
        </mxCell>
        <mxCell id="3BFnkLosoi_cpYp4ozxy-4" value="&lt;u&gt;UserID&lt;/u&gt;" style="whiteSpace=wrap;html=1;align=center;gradientColor=none;" vertex="1" parent="1">
          <mxGeometry x="300" y="-680" width="100" height="40" as="geometry" />
        </mxCell>
        <mxCell id="3BFnkLosoi_cpYp4ozxy-5" value="&lt;u&gt;Address&lt;/u&gt;" style="whiteSpace=wrap;html=1;align=center;gradientColor=none;" vertex="1" parent="1">
          <mxGeometry x="400" y="-680" width="100" height="40" as="geometry" />
        </mxCell>
        <mxCell id="3BFnkLosoi_cpYp4ozxy-8" value="" style="endArrow=classic;html=1;rounded=0;entryX=0.642;entryY=1.016;entryDx=0;entryDy=0;entryPerimeter=0;exitX=0.585;exitY=0.992;exitDx=0;exitDy=0;exitPerimeter=0;" edge="1" parent="1" source="3BFnkLosoi_cpYp4ozxy-4" target="CchUM51S7KAnoL3VL-fl-17">
          <mxGeometry width="50" height="50" relative="1" as="geometry">
            <mxPoint x="430" y="-550" as="sourcePoint" />
            <mxPoint x="480" y="-600" as="targetPoint" />
            <Array as="points">
              <mxPoint x="358" y="-610" />
              <mxPoint x="600" y="-610" />
              <mxPoint x="600" y="-690" />
              <mxPoint x="354" y="-690" />
            </Array>
          </mxGeometry>
        </mxCell>
        <mxCell id="CchUM51S7KAnoL3VL-fl-44" value="&lt;u&gt;CategoryID&lt;/u&gt;" style="whiteSpace=wrap;html=1;align=center;gradientColor=none;" parent="1" vertex="1">
          <mxGeometry x="300" y="-280" width="100" height="40" as="geometry" />
        </mxCell>
        <mxCell id="CchUM51S7KAnoL3VL-fl-45" value="CategoryName" style="whiteSpace=wrap;html=1;align=center;gradientColor=none;" parent="1" vertex="1">
          <mxGeometry x="400" y="-280" width="100" height="40" as="geometry" />
        </mxCell>
        <mxCell id="CchUM51S7KAnoL3VL-fl-53" value="&lt;font style=&quot;font-size: 17px;&quot;&gt;Category&lt;/font&gt;" style="text;strokeColor=none;fillColor=none;spacingLeft=4;spacingRight=4;overflow=hidden;rotatable=0;points=[[0,0.5],[1,0.5]];portConstraint=eastwest;fontSize=12;whiteSpace=wrap;html=1;" parent="1" vertex="1">
          <mxGeometry x="190" y="-275" width="80" height="30" as="geometry" />
        </mxCell>
        <mxCell id="3BFnkLosoi_cpYp4ozxy-9" value="&lt;font style=&quot;font-size: 17px;&quot;&gt;Has&lt;/font&gt;" style="text;strokeColor=none;fillColor=none;spacingLeft=4;spacingRight=4;overflow=hidden;rotatable=0;points=[[0,0.5],[1,0.5]];portConstraint=eastwest;fontSize=12;whiteSpace=wrap;html=1;" vertex="1" parent="1">
          <mxGeometry x="200" y="-350" width="50" height="30" as="geometry" />
        </mxCell>
        <mxCell id="3BFnkLosoi_cpYp4ozxy-10" value="&lt;u&gt;CategoryID&lt;/u&gt;" style="whiteSpace=wrap;html=1;align=center;gradientColor=none;" vertex="1" parent="1">
          <mxGeometry x="300" y="-350" width="100" height="40" as="geometry" />
        </mxCell>
        <mxCell id="3BFnkLosoi_cpYp4ozxy-11" value="&lt;u&gt;ProductID&lt;/u&gt;" style="whiteSpace=wrap;html=1;align=center;gradientColor=none;" vertex="1" parent="1">
          <mxGeometry x="400" y="-350" width="100" height="40" as="geometry" />
        </mxCell>
        <mxCell id="3BFnkLosoi_cpYp4ozxy-13" value="" style="endArrow=classic;html=1;rounded=0;entryX=0.5;entryY=1;entryDx=0;entryDy=0;exitX=0.5;exitY=1;exitDx=0;exitDy=0;" edge="1" parent="1" source="3BFnkLosoi_cpYp4ozxy-10" target="CchUM51S7KAnoL3VL-fl-44">
          <mxGeometry width="50" height="50" relative="1" as="geometry">
            <mxPoint x="250" y="-180" as="sourcePoint" />
            <mxPoint x="300" y="-230" as="targetPoint" />
            <Array as="points">
              <mxPoint x="350" y="-290" />
              <mxPoint x="170" y="-290" />
              <mxPoint x="170" y="-220" />
              <mxPoint x="350" y="-220" />
            </Array>
          </mxGeometry>
        </mxCell>
        <mxCell id="3BFnkLosoi_cpYp4ozxy-14" value="" style="endArrow=classic;html=1;rounded=0;entryX=0.612;entryY=1.027;entryDx=0;entryDy=0;entryPerimeter=0;exitX=0.5;exitY=1;exitDx=0;exitDy=0;" edge="1" parent="1" source="3BFnkLosoi_cpYp4ozxy-11" target="CchUM51S7KAnoL3VL-fl-38">
          <mxGeometry width="50" height="50" relative="1" as="geometry">
            <mxPoint x="360" y="-320" as="sourcePoint" />
            <mxPoint x="410" y="-370" as="targetPoint" />
            <Array as="points">
              <mxPoint x="450" y="-300" />
              <mxPoint x="600" y="-300" />
              <mxPoint x="600" y="-360" />
              <mxPoint x="361" y="-360" />
            </Array>
          </mxGeometry>
        </mxCell>
      </root>
    </mxGraphModel>
  </diagram>
</mxfile>
